<?xml version="1.0" encoding="UTF-8"?>
<svg width="22px" height="14px" viewBox="0 0 22 14" version="1.1" xmlns="http://www.w3.org/2000/svg" xmlns:xlink="http://www.w3.org/1999/xlink">
    <title>icon/product/washing machine 6</title>
    <g id="Navigation" stroke="none" stroke-width="1" fill="none" fill-rule="evenodd">
        <g id="768px---navigation" transform="translate(-193.000000, -226.000000)">
            <g id="Group-11" transform="translate(168.000000, 0.000000)">
                <g id="icon/product/laptop" transform="translate(24.000000, 221.000000)">
                    <rect id="icon_container" fill-opacity="0" fill="#FFFFFF" x="0" y="0" width="24" height="24"></rect>
                    <g id="Colour" transform="translate(1.500000, 5.000000)" fill="#56707A" fill-rule="nonzero">
                        <path d="M2.31818182,14 C1.11168527,14 0.0922860885,13.2022722 0.00592339281,12.1456403 L0,12 L0,11.25 C0,10.668975 0.430454823,10.205713 1.00001967,10.0533999 L1,2.99334206 C1,1.42185201 2.01264276,0.101216278 3.34489914,0.00554708776 L3.5,0 L17.5,0 C18.8558168,0 19.918675,1.26243239 19.9955455,2.81318496 L20,2.99334206 L20.000502,10.0535395 C20.5286489,10.1949738 20.9370697,10.6038068 20.9933643,11.1259379 L21,11.25 L21,12 C21,13.0790553 20.0330572,13.9236986 18.8451107,13.995106 L18.6818182,14 L2.31818182,14 Z M17.5,1 L3.5,1 C2.73888342,1 2.07013834,1.78626201 2.00516663,2.82698095 L2,2.99334206 L2,10 L9.01263428,10 C9.28877665,10 9.51263428,10.2238576 9.51263428,10.5 C9.51263428,10.7454599 9.33575912,10.9496084 9.10250991,10.9919443 L9.01263428,11 L1.40909091,11 C1.1948088,11 1.04231015,11.1037135 1.00753365,11.206373 L1,11.25 L1,12 C1,12.4788779 1.61067304,12.9421517 2.44608415,12.9949975 L2.60526316,13 L18.3947368,13 C19.2567326,13 19.9181113,12.5648955 19.9929379,12.0895104 L20,12 L20,11.25 C20,11.1497798 19.8742866,11.0335387 19.6787985,11.0060444 L19.5909091,11 L12.0025635,11 C11.7264211,11 11.5025635,10.7761424 11.5025635,10.5 C11.5025635,10.2545401 11.6794386,10.0503916 11.9126878,10.0080557 L12.0025635,10 L19,10 L19,2.99334206 C19,1.92731133 18.3693108,1.08774778 17.6193341,1.0064565 L17.5,1 Z M10.5438596,2.5 C11.1203674,2.5 11.5877193,2.96735188 11.5877193,3.54385965 C11.5877193,4.12036741 11.1203674,4.5877193 10.5438596,4.5877193 C9.96735188,4.5877193 9.5,4.12036741 9.5,3.54385965 C9.5,2.96735188 9.96735188,2.5 10.5438596,2.5 Z" id="Icon_shape"></path>
                    </g>
                </g>
            </g>
        </g>
    </g>
</svg>