<svg xmlns="http://www.w3.org/2000/svg" height="40" viewBox="0 -960 960 960" width="40"><path d="M20.002-184.617v-50.255h142.973v-36.461q-25.846 0-44.204-18.388-18.359-18.388-18.359-44.176v-403.537q0-25.788 18.387-44.175 18.388-18.388 44.176-18.388h634.05q25.788 0 44.176 18.388 18.387 18.387 18.387 44.175v403.537q0 25.788-18.387 44.176-18.388 18.388-44.176 18.388v36.461h142.974v50.255H20.001Zm142.973-136.971h634.05q5.128 0 8.718-3.462t3.59-8.847v-403.537q0-5.385-3.59-8.846-3.59-3.462-8.718-3.462h-634.05q-5.128 0-8.718 3.462-3.59 3.461-3.59 8.846v403.537q0 5.385 3.59 8.847 3.59 3.462 8.718 3.462Zm-12.308 0v-428.154V-321.588Z"/></svg>