<?xml version="1.0" encoding="UTF-8"?>
<svg width="12px" height="18px" viewBox="0 0 12 18" version="1.1" xmlns="http://www.w3.org/2000/svg" xmlns:xlink="http://www.w3.org/1999/xlink">
    <title>icon/product/washing machine 3</title>
    <g id="Navigation" stroke="none" stroke-width="1" fill="none" fill-rule="evenodd">
        <g id="768px---navigation" transform="translate(-198.000000, -368.000000)">
            <g id="Group-11" transform="translate(168.000000, 0.000000)">
                <g id="icon/product/mobile" transform="translate(24.000000, 365.000000)">
                    <rect id="icon_container" fill-opacity="0" fill="#FFFFFF" x="0" y="0" width="24" height="24"></rect>
                    <g id="Colour" transform="translate(6.315789, 3.000000)" fill="#56707A" fill-rule="nonzero">
                        <path d="M4.73684211,0 C4.73684211,0.497056275 5.16099339,0.9 5.68421053,0.9 C6.20742766,0.9 6.63157895,0.497056275 6.63157895,0 L9.47368421,0 C10.5201185,0 11.3684211,0.80588745 11.3684211,1.8 L11.3684211,16.2 C11.3684211,17.1941125 10.5201185,18 9.47368421,18 L1.89473684,18 C0.848302579,18 0,17.1941125 0,16.2 L0,1.8 C0,0.80588745 0.848302579,0 1.89473684,0 L4.73684211,0 Z M4.05852632,0.947368421 L1.89473684,0.947368421 C1.39908731,0.947368421 1.00706618,1.28615514 0.953591984,1.70263014 L0.947368421,1.8 L0.947368421,16.2 C0.947368421,16.6268821 1.30398602,16.9961604 1.78230267,17.0467365 L1.89473684,17.0526316 L9.47368421,17.0526316 C9.96933374,17.0526316 10.3613549,16.7138449 10.4148291,16.2973699 L10.4210526,16.2 L10.4210526,1.8 C10.4210526,1.37311791 10.064435,1.00383962 9.58611839,0.953263543 L9.47368421,0.947368421 L7.30894737,0.947368421 L7.27102795,1.01084881 C6.93091387,1.51695503 6.34340369,1.84736842 5.68421053,1.84736842 C5.02501736,1.84736842 4.43750719,1.51695503 4.0973931,1.01084881 L4.05852632,0.947368421 Z M7.57894737,14.8263158 C7.84055593,14.8263158 8.05263158,15.0501734 8.05263158,15.3263158 C8.05263158,15.5717757 7.88506564,15.7759242 7.6640927,15.8182601 L7.57894737,15.8263158 L3.78947368,15.8263158 C3.52786512,15.8263158 3.31578947,15.6024582 3.31578947,15.3263158 C3.31578947,15.0808559 3.48335542,14.8767074 3.70432835,14.8343715 L3.78947368,14.8263158 L7.57894737,14.8263158 Z" id="Icon_shape"></path>
                    </g>
                </g>
            </g>
        </g>
    </g>
</svg>