<svg xmlns="http://www.w3.org/2000/svg" height="40" viewBox="0 -960 960 960" width="40"><path d="m727.281-369.231-35.537-35.794q16.487-14.872 25.872-34.332 9.385-19.46 9.385-41.592 0-21.82-9.165-41.657-9.164-19.837-25.682-34.933l35.127-35.537q23.308 21.897 36.641 50.708 13.333 28.811 13.333 60.82t-13.333 61.086q-13.333 29.077-36.641 51.231Zm85.077 84.82-34.974-35.127q32.334-32.234 49.757-73.865 17.423-41.632 17.423-87.371t-18.09-87.418q-18.09-41.68-52.474-71.603l37.281-37.281q40.567 39.011 62.052 89.717 21.486 50.705 21.486 106.949 0 55.897-21.27 106.556-21.269 50.66-61.191 89.443ZM282.565-60.001q-25.705 0-44.134-18.43-18.43-18.43-18.43-44.134v-714.87q0-25.705 18.43-44.134 18.429-18.43 44.134-18.43h394.87q25.705 0 44.134 18.43 18.43 18.429 18.43 44.134v139.384h-50.255v-56.309H270.256v548.72h419.488v-56.309h50.255v139.384q0 25.705-18.43 44.134Q703.14-60 677.435-60h-394.87Zm-12.309-95.384v32.82q0 4.616 3.847 8.462 3.846 3.847 8.462 3.847h394.87q4.616 0 8.462-3.847 3.847-3.846 3.847-8.462v-32.82H270.256Zm0-649.23h419.488v-32.82q0-4.616-3.847-8.462-3.846-3.847-8.462-3.847h-394.87q-4.616 0-8.462 3.847-3.847 3.846-3.847 8.462v32.82Zm0 0v-45.129 45.129Zm0 649.23v45.129-45.129Z"/></svg>