<?xml version="1.0" encoding="UTF-8"?>
<svg width="16px" height="18px" viewBox="0 0 16 18" version="1.1" xmlns="http://www.w3.org/2000/svg" xmlns:xlink="http://www.w3.org/1999/xlink">
    <title>icon/product/washing machine 2</title>
    <g id="Navigation" stroke="none" stroke-width="1" fill="none" fill-rule="evenodd">
        <g id="768px---navigation" transform="translate(-196.000000, -416.000000)">
            <g id="Group-11" transform="translate(168.000000, 0.000000)">
                <g id="icon/product/smart-tech" transform="translate(24.000000, 413.000000)">
                    <rect id="icon_container" fill-opacity="0" fill="#FFFFFF" x="0" y="0" width="24" height="24"></rect>
                    <g id="Colour" transform="translate(4.389231, 3.500000)" fill="#56707A" fill-rule="nonzero">
                        <path d="M10.2784615,16.0061538 C10.5529046,16.0061538 10.7753846,16.2286339 10.7753846,16.5030769 C10.7753846,16.7470263 10.5995979,16.9499185 10.3677841,16.9919939 L10.2784615,17 L3.16461538,17 C2.89017235,17 2.66769231,16.77752 2.66769231,16.5030769 C2.66769231,16.2591276 2.84347901,16.0562354 3.07529283,16.0141599 L3.16461538,16.0061538 L10.2784615,16.0061538 Z M11.4007321,1.77846154 C12.4715469,1.77846154 13.3589757,2.57061944 13.4374387,3.58812056 L13.4430769,3.7349496 L13.4430769,13.2650504 C13.4430769,14.3027275 12.6043215,15.1420525 11.5523906,15.2162108 L11.4007321,15.2215385 L2.04234483,15.2215385 C0.971530017,15.2215385 0.0841011899,14.4293806 0.0056382693,13.4118794 L0,13.2650504 L0,3.7349496 C0,2.69727252 0.838755427,1.85794748 1.89068636,1.78378916 L2.04234483,1.77846154 L11.4007321,1.77846154 Z M11.4007321,2.77230769 L2.04234483,2.77230769 C1.49613974,2.77230769 1.05615864,3.15345471 0.999922069,3.63120062 L0.993846154,3.7349496 L0.993846154,13.2650504 C0.993846154,13.7551444 1.39741358,14.1689643 1.92702789,14.2219621 L2.04234483,14.2276923 L11.4007321,14.2276923 C11.9469372,14.2276923 12.3869183,13.8465453 12.4431549,13.3687994 L12.4492308,13.2650504 L12.4492308,3.7349496 C12.4492308,3.24485562 12.0456633,2.83103567 11.516049,2.77803788 L11.4007321,2.77230769 Z M14.7246154,7.11384615 C14.9685648,7.11384615 15.1714569,7.28963285 15.2135324,7.52144668 L15.2215385,7.61076923 L15.2215385,9.38923077 C15.2215385,9.66367381 14.9990584,9.88615385 14.7246154,9.88615385 C14.480666,9.88615385 14.2777738,9.71036715 14.2356984,9.47855332 L14.2276923,9.38923077 L14.2276923,7.61076923 C14.2276923,7.33632619 14.4501723,7.11384615 14.7246154,7.11384615 Z M4.05384615,7.61076923 C4.54495475,7.61076923 4.94307692,8.00889141 4.94307692,8.5 C4.94307692,8.99110859 4.54495475,9.38923077 4.05384615,9.38923077 C3.56273756,9.38923077 3.16461538,8.99110859 3.16461538,8.5 C3.16461538,8.00889141 3.56273756,7.61076923 4.05384615,7.61076923 Z M6.72153846,7.61076923 C7.21264705,7.61076923 7.61076923,8.00889141 7.61076923,8.5 C7.61076923,8.99110859 7.21264705,9.38923077 6.72153846,9.38923077 C6.23042987,9.38923077 5.83230769,8.99110859 5.83230769,8.5 C5.83230769,8.00889141 6.23042987,7.61076923 6.72153846,7.61076923 Z M9.38923077,7.61076923 C9.88033936,7.61076923 10.2784615,8.00889141 10.2784615,8.5 C10.2784615,8.99110859 9.88033936,9.38923077 9.38923077,9.38923077 C8.89812218,9.38923077 8.5,8.99110859 8.5,8.5 C8.5,8.00889141 8.89812218,7.61076923 9.38923077,7.61076923 Z M10.2784615,0 C10.5529046,0 10.7753846,0.22248004 10.7753846,0.496923077 C10.7753846,0.740872443 10.5995979,0.943764627 10.3677841,0.985840058 L10.2784615,0.993846154 L3.16461538,0.993846154 C2.89017235,0.993846154 2.66769231,0.771366114 2.66769231,0.496923077 C2.66769231,0.252973711 2.84347901,0.0500815273 3.07529283,0.00800609606 L3.16461538,0 L10.2784615,0 Z" id="Icon_shape"></path>
                    </g>
                </g>
            </g>
        </g>
    </g>
</svg>