<svg xmlns="http://www.w3.org/2000/svg" height="40" viewBox="0 -960 960 960" width="40"><path d="M177.18-150.771v-69.23h-14.615q-25.705 0-44.134-18.43-18.43-18.429-18.43-44.134v-434.87q0-25.705 18.43-44.134 18.429-18.43 44.134-18.43h634.87q25.705 0 44.134 18.43 18.43 18.429 18.43 44.134v434.87q0 25.705-18.43 44.134-18.429 18.43-44.134 18.43H782.82v69.23h-21.743l-23.189-69.23H223.492l-24.569 69.23H177.18Zm-14.615-119.485h634.87q5.385 0 8.847-3.462 3.462-3.462 3.462-8.847v-434.87q0-5.385-3.462-8.847-3.462-3.462-8.847-3.462h-634.87q-5.385 0-8.847 3.462-3.462 3.462-3.462 8.847v434.87q0 5.385 3.462 8.847 3.462 3.462 8.847 3.462ZM480-500Z"/></svg>