<?xml version="1.0" encoding="UTF-8"?>
<svg width="22px" height="16px" viewBox="0 0 22 16" version="1.1" xmlns="http://www.w3.org/2000/svg" xmlns:xlink="http://www.w3.org/1999/xlink">
    <title>icon/product/washing machine 7</title>
    <g id="Navigation" stroke="none" stroke-width="1" fill="none" fill-rule="evenodd">
        <g id="768px---navigation" transform="translate(-193.000000, -177.000000)">
            <g id="Group-11" transform="translate(168.000000, 0.000000)">
                <g id="icon/product/tv" transform="translate(24.000000, 173.000000)">
                    <rect id="icon_container" fill-opacity="0" fill="#FFFFFF" x="0" y="0" width="24" height="24"></rect>
                    <g id="Colour" transform="translate(1.265071, 4.000000)" fill="#56707A" fill-rule="nonzero">
                        <path d="M19.5180523,0 C20.5960045,0 21.4698575,0.873852965 21.4698575,1.95180523 L21.4698575,11.7108314 C21.4698575,12.7887836 20.5960045,13.6626366 19.5180523,13.6626366 L17.1983318,13.6626366 L18.1491755,15.3090263 C18.2636483,15.507299 18.195715,15.7608293 17.9974423,15.8753021 L17.8777741,15.9443926 C17.6795014,16.0588654 17.4259711,15.9909321 17.3114983,15.7926594 L16.0809233,13.6626366 L5.3791752,13.6626366 L4.14972292,15.7926594 C4.03525012,15.9909321 3.78171978,16.0588654 3.58344706,15.9443926 L3.46377889,15.8753021 C3.26550617,15.7608293 3.19757292,15.507299 3.31204573,15.3090263 L4.26176671,13.6626366 L1.95180523,13.6626366 C0.873852965,13.6626366 0,12.7887836 0,11.7108314 L0,1.95180523 C0,0.873852965 0.873852965,0 1.95180523,0 L19.5180523,0 Z M19.5180523,0.975902613 L1.95180523,0.975902613 C1.45132739,0.975902613 1.03884134,1.35264024 0.982468224,1.83799437 L0.975902613,1.95180523 L0.975902613,11.7108314 C0.975902613,12.2113092 1.35264024,12.6237952 1.83799437,12.6801684 L1.95180523,12.686734 L19.5180523,12.686734 C20.0185301,12.686734 20.4310161,12.3099963 20.4873893,11.8246422 L20.4939549,11.7108314 L20.4939549,1.95180523 C20.4939549,1.45132739 20.1172172,1.03884134 19.6318631,0.982468224 L19.5180523,0.975902613 Z" id="Icon_shape"></path>
                    </g>
                </g>
            </g>
        </g>
    </g>
</svg>